#!OML:ASF H:\LiuWeirdWalks\Patient Classification 1\Patient 1\Session 1\male.ASF
:FULLY-SPECIFIED
:DEGREES
421
root -0.317707 18.1238 -20.7084 0.527973 1.78698 -2.71496
lowerback 5.41154 -2.19119 5.07488
upperback 0.0242855 -2.47154 4.07365
thorax -3.04743 -1.27427 1.56566
lowerneck -14.8058 2.90604 9.2504
upperneck 17.8339 4.62491 -13.5168
head 8.5211 1.49118 -5.61739
rclavicle 7.45443e-015 -1.74931e-014
rhumerus -38.515 -5.98944 -77.2121
rradius 30.7065
rwrist -8.90666
rhand -17.9601 -4.23207
rfingers 7.12502
rthumb 8.30881 -34.0487
lclavicle 7.45443e-015 -1.74931e-014
lhumerus -26.2098 -0.428449 86.558
lradius 36.9716
lwrist 11.9197
lhand -11.1861 -0.533358
lfingers 7.12502
lthumb 14.8412 28.9151
rfemur -8.75374 -2.91391 26.9431
rtibia 24.3187
rfoot -12.7863 -6.84342
rtoes 0.938156
lfemur -22.6423 5.22735 -10.4872
ltibia 50.9233
lfoot -8.74254 8.41364
ltoes 0.493154
422
root -0.316117 18.1216 -20.6726 0.495886 1.68617 -2.78878
lowerback 5.45685 -2.23764 5.12353
upperback 0.0324852 -2.52636 4.0978
thorax -3.06611 -1.30221 1.57014
lowerneck -15.0875 2.92151 9.25482
upperneck 18.179 4.65772 -13.5076
head 8.69317 1.49314 -5.6236
rclavicle -8.74653e-015 -7.95139e-015
rhumerus -38.6605 -6.09918 -77.0983
rradius 30.5603
rwrist -8.82476
rhand -17.9677 -4.25574
rfingers 7.12502
rthumb 8.30148 -34.0726
lclavicle -8.74653e-015 -7.95139e-015
lhumerus -26.0032 -0.376105 86.5036
lradius 37.1249
lwrist 11.9154
lhand -11.1552 -0.456892
lfingers 7.12502
lthumb 14.871 28.9894
rfemur -8.56155 -2.73289 27.0568
rtibia 24.2608
rfoot -12.7819 -7.06656
rtoes 0.8879
lfemur -23.0586 5.0542 -10.4555
ltibia 49.9307
lfoot -8.8812 8.58853
ltoes -0.406506
423
root -0.314553 18.1202 -20.637 0.462812 1.59238 -2.86771
lowerback 5.49761 -2.2848 5.17426
upperback 0.0506801 -2.58299 4.12088
thorax -3.07206 -1.33084 1.57204
lowerneck -15.2972 2.93665 9.21717
upperneck 18.4139 4.68157 -13.439
head 8.81178 1.4978 -5.59839
rclavicle -3.67752e-015 3.33958e-014
rhumerus -38.8023 -6.22289 -76.9819
rradius 30.4245
rwrist -8.7405
rhand -17.9776 -4.26433
rfingers 7.12502
rthumb 8.292 -34.0816
lclavicle -3.67752e-015 3.33958e-014
lhumerus -25.7785 -0.338655 86.4485
lradius 37.2582
lwrist 11.9029
lhand -11.1251 -0.413791
lfingers 7.12502
lthumb 14.9 29.0304
rfemur -8.35237 -2.54976 27.1775
rtibia 24.1657
rfoot -12.7651 -7.30386
rtoes 0.835839
lfemur -23.4544 4.86858 -10.4116
ltibia 48.8979
lfoot -8.97787 8.74362
ltoes -1.31855
424
root -0.312463 18.1199 -20.6013 0.433668 1.4922 -2.93286
lowerback 5.52921 -2.32916 5.21268
upperback 0.0764006 -2.63801 4.14128
thorax -3.06462 -1.35828 1.57723
lowerneck -15.4978 2.94861 9.1536
upperneck 18.6291 4.70165 -13.3506
head 8.92086 1.50146 -5.56124
rclavicle -8.15017e-015 3.33958e-014
rhumerus -38.9385 -6.34037 -76.8636
rradius 30.2998
rwrist -8.67023
rhand -17.9981 -4.2977
rfingers 7.12502
rthumb 8.27215 -34.1157
lclavicle -8.15017e-015 3.33958e-014
lhumerus -25.5491 -0.297006 86.3999
lradius 37.3793
lwrist 11.8905
lhand -11.1097 -0.427585
lfingers 7.12502
lthumb 14.9148 29.0155
rfemur -8.13094 -2.36208 27.2808
rtibia 24.0354
rfoot -12.7365 -7.53981
rtoes 0.773484
lfemur -23.8248 4.67542 -10.38
ltibia 47.8251
lfoot -9.04001 8.89565
ltoes -2.40051
425
root -0.3102 18.1202 -20.5657 0.408734 1.38239 -3.0095
lowerback 5.54901 -2.37258 5.2564
upperback 0.111317 -2.6928 4.16943
thorax -3.0409 -1.38536 1.58665
lowerneck -15.6138 2.94621 9.04205
upperneck 18.7361 4.70151 -13.2294
head 8.97309 1.49981 -5.50227
rclavicle 4.27387e-015 4.77083e-015
rhumerus -39.0638 -6.44325 -76.7405
rradius 30.1792
rwrist -8.59889
rhand -18.0098 -4.31529
rfingers 7.12502
rthumb 8.26086 -34.1338
lclavicle 4.27387e-015 4.77083e-015
lhumerus -25.3099 -0.242032 86.3589
lradius 37.4829
lwrist 11.93
lhand -11.1157 -0.496347
lfingers 7.12502
lthumb 14.909 28.9471
rfemur -7.89704 -2.14406 27.3984
rtibia 23.8735
rfoot -12.7041 -7.79205
rtoes 0.736786
lfemur -24.1759 4.49695 -10.3293
ltibia 46.7164
lfoot -9.0646 9.03146
ltoes -3.67754
426
root -0.307434 18.1211 -20.5298 0.390092 1.24801 -3.08483
lowerback 5.56201 -2.40788 5.29645
upperback 0.149803 -2.73779 4.20012
thorax -3.00924 -1.40738 1.59944
lowerneck -15.5715 2.92176 8.86339
upperneck 18.6556 4.66765 -13.0535
head 8.92481 1.49083 -5.40914
rclavicle -2.04748e-014 9.54166e-015
rhumerus -39.1823 -6.54277 -76.6123
rradius 30.0613
rwrist -8.53097
rhand -18.0135 -4.33472
rfingers 7.12502
rthumb 8.25729 -34.1533
lclavicle -2.04748e-014 9.54166e-015
lhumerus -25.0755 -0.181309 86.3258
lradius 37.5764
lwrist 11.9674
lhand -11.1308 -0.636434
lfingers 7.12502
lthumb 14.8945 28.8081
rfemur -7.65197 -1.88815 27.5132
rtibia 23.6839
rfoot -12.6637 -8.04401
rtoes 0.719262
lfemur -24.5034 4.33404 -10.2757
ltibia 45.574
lfoot -9.05545 9.16392
ltoes -5.17567
427
root -0.304073 18.1227 -20.4936 0.373367 1.09596 -3.14975
lowerback 5.56502 -2.43121 5.32966
upperback 0.195002 -2.7688 4.22567
thorax -2.96475 -1.42216 1.60877
lowerneck -15.4434 2.87863 8.65676
upperneck 18.4679 4.60442 -12.8528
head 8.81955 1.47287 -5.30252
rclavicle -7.15625e-015 1.59028e-015
rhumerus -39.3008 -6.66145 -76.4733
rradius 29.9476
rwrist -8.45694
rhand -18.0019 -4.33506
rfingers 7.12502
rthumb 8.26848 -34.1533
lclavicle -7.15625e-015 1.59028e-015
lhumerus -24.8339 -0.135789 86.303
lradius 37.6625
lwrist 12.0299
lhand -11.1647 -0.797487
lfingers 7.12502
lthumb 14.8618 28.6495
rfemur -7.39141 -1.60932 27.6143
rtibia 23.4678
rfoot -12.6169 -8.28915
rtoes 0.703019
lfemur -24.802 4.19492 -10.2307
ltibia 44.402
lfoot -9.02589 9.29482
ltoes -6.81993
428
root -0.300584 18.1243 -20.4574 0.362191 0.938019 -3.21891
lowerback 5.57022 -2.45007 5.36124
upperback 0.236479 -2.79347 4.25435
thorax -2.92503 -1.43385 1.62194
lowerneck -15.3461 2.82807 8.46787
upperneck 18.3121 4.53376 -12.6811
head 8.73167 1.44834 -5.21196
rclavicle 1.82882e-014 -3.18055e-015
rhumerus -39.4237 -6.77862 -76.3307
rradius 29.8398
rwrist -8.38992
rhand -17.984 -4.32237
rfingers 7.12502
rthumb 8.28575 -34.1399
lclavicle 1.82882e-014 -3.18055e-015
lhumerus -24.6018 -0.105744 86.2867
lradius 37.754
lwrist 12.0673
lhand -11.1951 -0.88459
lfingers 7.12502
lthumb 14.8325 28.5645
rfemur -7.12332 -1.30753 27.7215
rtibia 23.2265
rfoot -12.564 -8.54127
rtoes 0.698219
lfemur -25.084 4.06084 -10.1756
ltibia 43.2052
lfoot -8.98285 9.43658
ltoes -8.62337
429
root -0.297261 18.1261 -20.4207 0.342081 0.82211 -3.27462
lowerback 5.5786 -2.48152 5.37351
upperback 0.277815 -2.83595 4.28088
thorax -2.88663 -1.45417 1.64521
lowerneck -15.1804 2.77065 8.27019
upperneck 18.0848 4.45202 -12.504
head 8.60596 1.42174 -5.11738
rclavicle -3.67752e-015 -1.43125e-014
rhumerus -39.5539 -6.89262 -76.1863
rradius 29.7402
rwrist -8.33257
rhand -17.97 -4.29924
rfingers 7.12502
rthumb 8.29932 -34.1162
lclavicle -3.67752e-015 -1.43125e-014
lhumerus -24.3791 -0.0763733 86.2717
lradius 37.8469
lwrist 12.082
lhand -11.2225 -0.957797
lfingers 7.12502
lthumb 14.8061 28.4933
rfemur -6.82975 -1.02005 27.8171
rtibia 22.9625
rfoot -12.5156 -8.81811
rtoes 0.703727
lfemur -25.341 3.90613 -10.132
ltibia 41.9878
lfoot -8.93533 9.58205
ltoes -10.3664
